<svg version="1.2" xmlns="http://www.w3.org/2000/svg" viewBox="0 0 800 800" width="800" height="800">
	<title>Objeto inteligente vectorial2-ai</title>
	<style>
		.s0 { fill: #7f7f7f } 
	</style>
	<path id="&lt;Path&gt;" class="s0" d="m798.4 792.3c-7.3-36.9-14.3-74.1-24.2-110.2-7-25.6-18.3-50-28.6-74.6-3.5-8.4-9.4-15.3-19.6-18-48.8-13.2-97.6-26.7-146.3-40.4-23.3-6.6-46.5-13.8-70.7-21-1.2 0.7-9.7-11.1-15.6-18.3l-0.6-9.2-0.1-0.1c-0.7-15.7-2.5-31.2-2.9-47-0.2-4.8 2.4-10.1 4.8-14.6 4.6-9 11.3-17.2 14.8-26.6 4.5-12.4 6.8-25.6 10-38.8 12.2 4.8 14.7-4.9 15.8-12.4 3.6-23 6.5-46.1 8.4-69.3 1.1-13.1-2.1-14.7-15.6-11.6 1.3-27.7 3.1-55 3.8-82.4 0.8-35.8-13-65.3-43.2-84.9-55.8-36.5-120.8-38-178.7 0.3-35.3 23.2-52.2 56.8-48.4 100 1.9 21.8 2.1 43.8 3.1 66.5-12.7-3.7-16.4-2.2-15.5 8.9 2 24.8 5.4 49.5 8.9 74.2 1.2 8.3 5.6 14.3 16.4 9.2 1.7 26.1 9.4 48.6 24.3 67.5 0 0 0 0.1 0.1 0.1 4.9 6.7 3.8 20.5 3.8 20.5 0 19.1-0.2 35.8 0.1 52.4l-1.7 2.8v0.1c-6.4 7.7-12.9 19.8-15.8 20.6-62.3 18.4-133.3 34.5-196.1 51.2-20 5.4-32.4 16.2-41 33.5-3.8 7.3-7.5 14.6-10.5 22.3-17.8 45.4-28.8 92.7-35 141-4.4 34.2-7.7 35.5 28.7 47.6 42.7 14.2 86.7 25 130.8 34.2 67.1 14.3 135 23.5 203.6 25.9 102.2 3.5 203.2-7.7 303.1-29 38.1-8.1 76.1-17.3 111.4-34.7 19.2-9.5 22.4-14.9 18.2-35.7z"/>
</svg>