<svg version="1.2" xmlns="http://www.w3.org/2000/svg" viewBox="0 0 800 800" width="800" height="800">
	<title>Objeto inteligente vectorial2-ai</title>
	<style>
		.s0 { fill: #939598 } 
	</style>
	<g id="Objects">
		<path id="&lt;Compound Path&gt;" fill-rule="evenodd" class="s0" d="m800 775.5v24.2h-800v-24.2h15v-559.9h30.9v-74.4h19.9v-19.7h24.1v-24.2h35.6l8.8-70.3h4.2l8.8 70.3h35.5v24.2h24.1v19.7h19.9v74.4h30.9v156.8h165.7v403.1h34.1v-561.2h320.7v561.2zm-627.6-600.2h28v-25.2h-28zm-100.1-0.2h28.1v-25.1h-28.1zm0 34.3h28.1v-25.1h-28.1zm-37 546.7h39.2v-39.2h-39.2zm0-60.3h39.2v-39.2h-39.2zm0-91.6h39.2v-39.3h-39.2zm0-60.3h39.2v-39.2h-39.2zm0-60.3h39.2v-39.3h-39.2zm0-91.6h39.2v-39.2h-39.2zm0-60.3h39.2v-39.2h-39.2zm0-60.3h39.2v-39.3h-39.2zm64.7 485.2h39.2v-39.3h-39.2zm0-60.3h39.2v-39.2h-39.2zm0-91.6h39.2v-39.3h-39.2zm0-60.3h39.2v-39.2h-39.2zm0-60.3h39.2v-39.3h-39.2zm0-91.6h39.2v-39.2h-39.2zm0-60.3h39.2v-39.2h-39.2zm0-60.3h39.2v-39.3h-39.2zm22.3-62h28.1v-25.2h-28.1zm0-34.4h28.1v-25.1h-28.1zm50.1 34.3h28v-25.1h-28zm19.8 547.3h39.2v-39.2h-39.2zm0-60.4h39.2v-39.2h-39.2zm0-92h39.2v-39.3h-39.2zm0-60.3h39.2v-39.2h-39.2zm0-60.3h39.2v-39.2h-39.2zm0-91.7h39.2v-39.2h-39.2zm0-60.3h39.2v-39.2h-39.2zm0-60.3h39.2v-39.3h-39.2zm91.3 158.5h39.1v-35.1h-39.1zm0 47.9h39.1v-35.1h-39.1zm0 45.8h39.1v-35.1h-39.1zm0 72.6h39.1v-35.1h-39.1zm0 45.8h39.1v-35.1h-39.1zm0 48h39.1v-35.1h-39.1zm22.6 100.5h63.6v-80.8h-63.6zm47.1-100.2h39.2v-35.1h-39.2zm0-47.9h39.2v-35.1h-39.2zm0-45.7h39.2v-35.1h-39.2zm0-72.6h39.2v-35.1h-39.2zm0-45.8h39.2v-35.1h-39.2zm0-47.9h39.2v-35.1h-39.2zm280.2-134.4h44.7v-44.7h-44.7zm0 68.8h44.7v-44.8h-44.7zm0 68.8h44.7v-44.7h-44.7zm0 68.8h44.7v-44.7h-44.7zm0 68.7h44.7v-44.7h-44.7zm-146-275.5h44.8v-44.7h-44.8zm0 68.8h44.8v-44.8h-44.8zm0 68.8h44.8v-44.7h-44.8zm0 68.8h44.8v-44.8h-44.8zm0 68.8h44.8v-44.7h-44.8zm0 68.8h44.8v-44.8h-44.8zm29 150.3h57.3v-90.7h-57.3zm44-149.9h44.7v-44.7h-44.7zm0-68.8h44.7v-44.8h-44.7zm0-68.8h44.7v-44.7h-44.7zm0-68.8h44.7v-44.7h-44.7zm0-68.8h44.7v-44.8h-44.7zm0-68.8h44.7v-44.7h-44.7zm73 344h44.7v-44.8h-44.7zm29.7 149.9h57.4v-90.6h-57.4zm43.3-149.9h44.7v-44.8h-44.7zm0-68.8h44.7v-44.7h-44.7zm0-68.8h44.7v-44.7h-44.7zm0-68.8h44.7v-44.8h-44.7zm0-68.8h44.7v-44.7h-44.7zm0-68.8h44.7v-44.7h-44.7z"/>
	</g>
</svg>